<svg version="1.1" xmlns="http://www.w3.org/2000/svg" xmlns:xlink="http://www.w3.org/1999/xlink" width="833.79879" height="748.21321" viewBox="0,0,833.79879,748.21321"><defs><linearGradient x1="41.25148" y1="92.38807" x2="65.69163" y2="92.38807" gradientTransform="translate(-38.07798,-96.81806) scale(0.92307,0.92307)" gradientUnits="userSpaceOnUse" id="color-1"><stop offset="0" stop-color="#bfa0ff"/><stop offset="1" stop-color="#689ca5"/></linearGradient><linearGradient x1="41.25148" y1="92.38807" x2="65.69163" y2="92.38807" gradientTransform="translate(-38.07798,-96.81806) scale(0.92307,0.92307)" gradientUnits="userSpaceOnUse" id="color-2"><stop offset="0" stop-color="#bda0ff"/><stop offset="1" stop-color="#699ba7"/></linearGradient></defs><g transform="translate(27.72608,55.08405)"><g data-paper-data="{&quot;isPaintingLayer&quot;:true}" fill-rule="nonzero" stroke-linecap="butt" stroke-linejoin="miter" stroke-miterlimit="10" stroke-dasharray="" stroke-dashoffset="0" style="mix-blend-mode: normal"><path d="M-27.72608,398.3694v-453.45345h549.54955v453.45345z" fill="#5f498c" stroke="none" stroke-width="0"/><g stroke="none" stroke-width="0"><path d="M-6.20957,446.91294v-453.45346h549.54955v453.45346z" fill="#7257a7"/><path d="M34.82647,484.94598v-453.45346h549.54955v453.45346z" fill="#8364c0"/><path d="M78.8655,524.48051v-453.45345h549.54955v453.45345z" fill="#9370d8"/><path d="M125.90754,568.51955v-453.45345h549.54955v453.45345z" fill="#a47ef1"/><path d="M172.94958,611.05709v-453.45346h549.54955v453.45346z" fill="#b291f2"/><path d="M210.98261,655.09613v-453.45346h549.54955v453.45346z" fill="#c7b1f2"/><path d="M256.52316,693.12916v-453.45346h549.54955v453.45346z" fill="#e1d8f2"/></g><g stroke="none" stroke-width="0"><path d="M17.49585,294.89157v-202.02089h426.95137v202.02089z" fill="#6543a9"/><path d="M35.55277,267.12932v-202.02089h426.95137v202.02089z" fill="#462f75"/></g><text transform="translate(41.2514,104.88688) scale(1.08334,1.08334)" font-size="40" xml:space="preserve" fill="url(#color-1)" fill-rule="nonzero" stroke="url(#color-2)" stroke-width="3" stroke-linecap="butt" stroke-linejoin="miter" stroke-miterlimit="10" stroke-dasharray="" stroke-dashoffset="0" font-family="Handwriting" font-weight="normal" text-anchor="start" style="mix-blend-mode: normal"><tspan x="0" dy="0">3.</tspan></text><text transform="translate(49.83139,146.69624) scale(0.8467,0.8467)" font-size="40" xml:space="preserve" fill="#ceb6ff" fill-rule="nonzero" stroke="none" stroke-width="1" stroke-linecap="butt" stroke-linejoin="miter" stroke-miterlimit="10" stroke-dasharray="" stroke-dashoffset="0" font-family="Handwriting" font-weight="normal" text-anchor="start" style="mix-blend-mode: normal"><tspan x="0" dy="0">Sample Studio in description!!</tspan></text></g></g></svg>